<svg width="148" height="178" viewBox="0 0 148 178" fill="none" xmlns="http://www.w3.org/2000/svg">
<g clip-path="url(#clip0_9_7)">
<line x1="79" y1="18" x2="79" y2="174" stroke="white" stroke-width="10"/>
<line x1="75.5" y1="59" x2="75.5" y2="69" stroke="#EBCF65" stroke-width="5"/>
<line x1="75.5" y1="122" x2="75.5" y2="132" stroke="#EBCF65" stroke-width="5"/>
<line x1="79" y1="69" x2="79" y2="122" stroke="white" stroke-width="10"/>
<path d="M77.584 123.008C72.304 123.008 67.816 121.904 64.12 119.696C60.424 117.44 57.616 114.248 55.696 110.12C53.776 105.992 52.816 101.048 52.816 95.288C52.816 91.544 53.368 88.064 54.472 84.848C55.576 81.584 57.136 78.728 59.152 76.28C61.168 73.832 63.568 71.912 66.352 70.52C69.184 69.128 72.304 68.432 75.712 68.432C78.928 68.432 81.712 69.08 84.064 70.376C86.416 71.624 88.336 73.016 89.824 74.552L90.544 68.288H91.552L94.36 85.064L93.28 85.28C92.08 82.256 90.664 79.568 89.032 77.216C87.4 74.816 85.48 72.92 83.272 71.528C81.112 70.136 78.592 69.44 75.712 69.44C72.112 69.44 69.184 70.472 66.928 72.536C64.72 74.552 63.088 77.48 62.032 81.32C61.024 85.16 60.52 89.792 60.52 95.216C60.52 98.768 60.904 102.128 61.672 105.296C62.44 108.416 63.568 111.176 65.056 113.576C66.592 115.976 68.464 117.872 70.672 119.264C72.928 120.608 75.52 121.28 78.448 121.28C80.704 121.28 82.84 120.92 84.856 120.2C86.92 119.48 88.792 118.424 90.472 117.032C92.2 115.64 93.688 113.936 94.936 111.92L95.656 112.424C94.696 114.056 93.568 115.52 92.272 116.816C90.976 118.112 89.536 119.24 87.952 120.2C86.416 121.112 84.76 121.808 82.984 122.288C81.256 122.768 79.456 123.008 77.584 123.008Z" fill="#EBCF65"/>
<path d="M74.5 162.583C74.5 162.583 128.833 133.75 128.833 90.5V40.0417L74.5 18.4167L20.1667 40.0417V90.5C20.1667 133.75 74.5 162.583 74.5 162.583Z" stroke="#1E1E1E" stroke-width="4" stroke-linecap="round" stroke-linejoin="round"/>
</g>
<defs>
<clipPath id="clip0_9_7">
<rect width="148" height="178" fill="white"/>
</clipPath>
</defs>
</svg>
