<svg width="294" height="158" viewBox="0 0 294 158" fill="none" xmlns="http://www.w3.org/2000/svg">
<g clip-path="url(#clip0_20_1645)">
<path d="M150.6 90.432H152.888V90.592H152.808C152.723 90.592 152.648 90.624 152.584 90.688C152.52 90.7413 152.467 90.8107 152.424 90.896C152.381 90.9813 152.344 91.072 152.312 91.168C152.291 91.264 152.28 91.3493 152.28 91.424V95.712C152.088 95.7867 151.869 95.8507 151.624 95.904C151.379 95.9573 151.123 96 150.856 96.032C150.589 96.0747 150.317 96.1067 150.04 96.128C149.763 96.1493 149.507 96.16 149.272 96.16C148.312 96.16 147.475 96 146.76 95.68C146.045 95.36 145.453 94.944 144.984 94.432C144.515 93.9093 144.163 93.3227 143.928 92.672C143.704 92.0213 143.592 91.3653 143.592 90.704C143.592 90.0427 143.704 89.3867 143.928 88.736C144.163 88.0853 144.515 87.504 144.984 86.992C145.464 86.48 146.061 86.0693 146.776 85.76C147.501 85.44 148.36 85.28 149.352 85.28C149.725 85.28 150.072 85.312 150.392 85.376C150.712 85.44 150.995 85.4987 151.24 85.552C151.379 85.584 151.496 85.616 151.592 85.648C151.699 85.6693 151.789 85.68 151.864 85.68H152.008V87.376H151.848C151.784 87.0453 151.656 86.7787 151.464 86.576C151.283 86.3733 151.069 86.2187 150.824 86.112C150.579 86.0053 150.317 85.936 150.04 85.904C149.773 85.8613 149.523 85.84 149.288 85.84C148.488 85.84 147.795 85.984 147.208 86.272C146.621 86.5493 146.141 86.912 145.768 87.36C145.395 87.808 145.117 88.3147 144.936 88.88C144.755 89.4347 144.664 89.9893 144.664 90.544C144.664 91.1627 144.781 91.776 145.016 92.384C145.251 92.9813 145.581 93.52 146.008 94C146.435 94.4693 146.947 94.8533 147.544 95.152C148.152 95.44 148.824 95.584 149.56 95.584C149.763 95.584 150.013 95.5627 150.312 95.52C150.611 95.4667 150.909 95.3547 151.208 95.184V91.424C151.208 91.3493 151.197 91.264 151.176 91.168C151.155 91.072 151.117 90.9813 151.064 90.896C151.021 90.8107 150.968 90.7413 150.904 90.688C150.84 90.624 150.765 90.592 150.68 90.592H150.6V90.432ZM158.46 96V95.184L158.38 95.264C158.113 95.5307 157.804 95.7387 157.452 95.888C157.11 96.0373 156.694 96.112 156.204 96.112C155.83 96.112 155.51 96.0693 155.244 95.984C154.977 95.8987 154.758 95.7813 154.588 95.632C154.417 95.472 154.289 95.2907 154.204 95.088C154.129 94.8853 154.092 94.672 154.092 94.448C154.092 94.0853 154.188 93.7653 154.38 93.488C154.582 93.2107 154.87 92.9653 155.244 92.752C155.617 92.5387 156.07 92.3467 156.604 92.176C157.148 91.9947 157.766 91.8187 158.46 91.648C158.438 91.232 158.353 90.896 158.204 90.64C158.054 90.384 157.878 90.1867 157.676 90.048C157.473 89.8987 157.26 89.8027 157.036 89.76C156.812 89.7067 156.62 89.68 156.46 89.68C156.182 89.68 155.937 89.7227 155.724 89.808C155.521 89.8933 155.34 90.0053 155.18 90.144C155.03 90.272 154.902 90.416 154.796 90.576C154.689 90.7253 154.604 90.8693 154.54 91.008H154.396V89.84C154.481 89.8293 154.561 89.8027 154.636 89.76C154.71 89.7173 154.801 89.6747 154.908 89.632C155.068 89.568 155.286 89.4773 155.564 89.36C155.841 89.232 156.23 89.168 156.732 89.168C157.318 89.168 157.793 89.2427 158.156 89.392C158.518 89.5413 158.796 89.7387 158.988 89.984C159.19 90.2293 159.324 90.512 159.388 90.832C159.452 91.1413 159.484 91.4613 159.484 91.792V94.96C159.484 95.1733 159.532 95.376 159.628 95.568C159.724 95.7493 159.852 95.84 160.012 95.84V96H158.46ZM158.46 94.48V92.192L158.3 92.224C158.044 92.288 157.729 92.3733 157.356 92.48C156.993 92.5867 156.646 92.7253 156.316 92.896C155.985 93.0667 155.702 93.2693 155.468 93.504C155.233 93.7387 155.116 94.0107 155.116 94.32C155.116 94.6613 155.254 94.944 155.532 95.168C155.809 95.392 156.172 95.504 156.62 95.504C156.972 95.504 157.281 95.4293 157.548 95.28C157.814 95.12 158.06 94.9173 158.284 94.672L158.46 94.48ZM161.772 96V95.84C161.857 95.84 161.932 95.808 161.996 95.744C162.06 95.68 162.113 95.6053 162.156 95.52C162.199 95.4347 162.231 95.344 162.252 95.248C162.273 95.1413 162.284 95.0453 162.284 94.96V90.528C162.284 90.3467 162.257 90.176 162.204 90.016C162.151 89.8453 161.996 89.7547 161.74 89.744V89.6L163.34 89.088V94.96C163.34 95.0453 163.351 95.1413 163.372 95.248C163.393 95.344 163.425 95.4347 163.468 95.52C163.511 95.6053 163.564 95.68 163.628 95.744C163.692 95.808 163.767 95.84 163.852 95.84V96H161.772ZM161.852 87.552C161.852 87.3387 161.921 87.1573 162.06 87.008C162.209 86.8587 162.391 86.784 162.604 86.784C162.817 86.784 162.999 86.8587 163.148 87.008C163.297 87.1573 163.372 87.3387 163.372 87.552C163.372 87.7653 163.297 87.9413 163.148 88.08C162.999 88.2187 162.817 88.288 162.604 88.288C162.391 88.288 162.209 88.2187 162.06 88.08C161.921 87.9413 161.852 87.7653 161.852 87.552ZM171.996 94.96C171.996 95.0453 172.006 95.1413 172.028 95.248C172.049 95.344 172.081 95.4347 172.124 95.52C172.177 95.6053 172.23 95.68 172.284 95.744C172.348 95.808 172.422 95.84 172.508 95.84V96H170.444V95.84C170.518 95.84 170.588 95.808 170.652 95.744C170.716 95.68 170.769 95.6053 170.812 95.52C170.865 95.4347 170.902 95.344 170.924 95.248C170.945 95.1413 170.956 95.0453 170.956 94.96V91.984C170.956 91.6 170.902 91.264 170.796 90.976C170.689 90.688 170.545 90.448 170.364 90.256C170.182 90.064 169.974 89.9253 169.74 89.84C169.516 89.744 169.286 89.696 169.052 89.696C168.817 89.696 168.582 89.744 168.348 89.84C168.124 89.936 167.921 90.064 167.74 90.224C167.569 90.3733 167.425 90.5547 167.308 90.768C167.201 90.9707 167.148 91.184 167.148 91.408V94.96C167.148 95.0453 167.158 95.1413 167.18 95.248C167.201 95.344 167.233 95.4347 167.276 95.52C167.329 95.6053 167.382 95.68 167.436 95.744C167.5 95.808 167.574 95.84 167.66 95.84V96H165.58V95.84C165.654 95.84 165.724 95.808 165.788 95.744C165.852 95.68 165.905 95.6053 165.948 95.52C166.001 95.4347 166.038 95.344 166.06 95.248C166.081 95.1413 166.092 95.0453 166.092 94.96V90.544C166.092 90.3627 166.065 90.192 166.012 90.032C165.958 89.8613 165.804 89.7707 165.548 89.76V89.616L167.148 89.104V89.984C167.222 89.8987 167.318 89.808 167.436 89.712C167.553 89.6053 167.692 89.5093 167.852 89.424C168.022 89.328 168.214 89.2533 168.428 89.2C168.652 89.136 168.913 89.104 169.212 89.104C169.713 89.104 170.14 89.1893 170.492 89.36C170.844 89.5307 171.132 89.7547 171.356 90.032C171.58 90.2987 171.74 90.5973 171.836 90.928C171.942 91.248 171.996 91.5627 171.996 91.872V94.96ZM174.191 95.312C174.191 95.0987 174.261 94.9173 174.399 94.768C174.549 94.6187 174.73 94.544 174.943 94.544C175.157 94.544 175.338 94.6187 175.487 94.768C175.637 94.9173 175.711 95.0987 175.711 95.312C175.711 95.5253 175.637 95.7067 175.487 95.856C175.338 95.9947 175.157 96.064 174.943 96.064C174.73 96.064 174.549 95.9947 174.399 95.856C174.261 95.7067 174.191 95.5253 174.191 95.312ZM181.518 85.44H183.806V85.6H183.726C183.652 85.6 183.582 85.632 183.518 85.696C183.454 85.7493 183.401 85.8187 183.358 85.904C183.316 85.9787 183.278 86.0693 183.246 86.176C183.225 86.272 183.214 86.3573 183.214 86.432V94.96C183.214 95.0453 183.225 95.1413 183.246 95.248C183.268 95.344 183.3 95.4347 183.342 95.52C183.396 95.6053 183.449 95.68 183.502 95.744C183.566 95.808 183.641 95.84 183.726 95.84H183.806V96H181.518V95.84H181.598C181.684 95.84 181.758 95.8133 181.822 95.76C181.886 95.696 181.94 95.6213 181.982 95.536C182.036 95.44 182.073 95.344 182.094 95.248C182.116 95.1413 182.126 95.0453 182.126 94.96V86.432C182.126 86.3573 182.116 86.272 182.094 86.176C182.073 86.08 182.036 85.9893 181.982 85.904C181.94 85.8187 181.886 85.7493 181.822 85.696C181.758 85.632 181.684 85.6 181.598 85.6H181.518V85.44ZM191.777 94.96C191.777 95.0453 191.788 95.1413 191.809 95.248C191.83 95.344 191.862 95.4347 191.905 95.52C191.958 95.6053 192.012 95.68 192.065 95.744C192.129 95.808 192.204 95.84 192.289 95.84V96H190.225V95.84C190.3 95.84 190.369 95.808 190.433 95.744C190.497 95.68 190.55 95.6053 190.593 95.52C190.646 95.4347 190.684 95.344 190.705 95.248C190.726 95.1413 190.737 95.0453 190.737 94.96V91.984C190.737 91.6 190.684 91.264 190.577 90.976C190.47 90.688 190.326 90.448 190.145 90.256C189.964 90.064 189.756 89.9253 189.521 89.84C189.297 89.744 189.068 89.696 188.833 89.696C188.598 89.696 188.364 89.744 188.129 89.84C187.905 89.936 187.702 90.064 187.521 90.224C187.35 90.3733 187.206 90.5547 187.089 90.768C186.982 90.9707 186.929 91.184 186.929 91.408V94.96C186.929 95.0453 186.94 95.1413 186.961 95.248C186.982 95.344 187.014 95.4347 187.057 95.52C187.11 95.6053 187.164 95.68 187.217 95.744C187.281 95.808 187.356 95.84 187.441 95.84V96H185.361V95.84C185.436 95.84 185.505 95.808 185.569 95.744C185.633 95.68 185.686 95.6053 185.729 95.52C185.782 95.4347 185.82 95.344 185.841 95.248C185.862 95.1413 185.873 95.0453 185.873 94.96V90.544C185.873 90.3627 185.846 90.192 185.793 90.032C185.74 89.8613 185.585 89.7707 185.329 89.76V89.616L186.929 89.104V89.984C187.004 89.8987 187.1 89.808 187.217 89.712C187.334 89.6053 187.473 89.5093 187.633 89.424C187.804 89.328 187.996 89.2533 188.209 89.2C188.433 89.136 188.694 89.104 188.993 89.104C189.494 89.104 189.921 89.1893 190.273 89.36C190.625 89.5307 190.913 89.7547 191.137 90.032C191.361 90.2987 191.521 90.5973 191.617 90.928C191.724 91.248 191.777 91.5627 191.777 91.872V94.96ZM200.325 89.28V89.44C200.25 89.44 200.175 89.4667 200.101 89.52C200.026 89.5733 199.951 89.6427 199.877 89.728C199.813 89.8133 199.749 89.9093 199.685 90.016C199.631 90.112 199.583 90.2027 199.541 90.288L196.789 96.272L194.053 90.224C193.978 90.0533 193.882 89.8827 193.765 89.712C193.647 89.5307 193.498 89.44 193.317 89.44V89.28H195.509V89.44C195.445 89.44 195.359 89.472 195.253 89.536C195.157 89.6 195.109 89.6907 195.109 89.808C195.109 89.8613 195.151 89.984 195.237 90.176L197.077 94.32L199.061 90C199.103 89.8933 199.125 89.8133 199.125 89.76C199.125 89.664 199.077 89.5893 198.981 89.536C198.895 89.472 198.821 89.44 198.757 89.44V89.28H200.325ZM202.194 92.768C202.236 93.1413 202.327 93.4987 202.466 93.84C202.604 94.1707 202.786 94.464 203.01 94.72C203.244 94.976 203.527 95.184 203.858 95.344C204.188 95.4933 204.572 95.568 205.01 95.568C205.244 95.568 205.49 95.536 205.746 95.472C206.012 95.3973 206.258 95.296 206.482 95.168C206.706 95.04 206.903 94.8853 207.074 94.704C207.255 94.512 207.378 94.2987 207.442 94.064H207.586V95.264C207.522 95.264 207.447 95.2853 207.362 95.328C207.287 95.3707 207.196 95.424 207.09 95.488C206.876 95.616 206.588 95.7547 206.226 95.904C205.863 96.0427 205.383 96.112 204.786 96.112C204.306 96.112 203.847 96.0427 203.41 95.904C202.983 95.7653 202.604 95.552 202.274 95.264C201.943 94.976 201.676 94.608 201.474 94.16C201.282 93.712 201.186 93.1787 201.186 92.56C201.186 92.1653 201.25 91.7653 201.378 91.36C201.516 90.9547 201.719 90.592 201.986 90.272C202.263 89.9413 202.615 89.6747 203.042 89.472C203.468 89.2693 203.98 89.168 204.578 89.168C205.111 89.168 205.575 89.2587 205.97 89.44C206.375 89.6213 206.706 89.872 206.962 90.192C207.228 90.512 207.426 90.8907 207.554 91.328C207.682 91.7653 207.746 92.2453 207.746 92.768H202.194ZM204.514 89.696C204.14 89.696 203.815 89.7707 203.538 89.92C203.271 90.0693 203.042 90.2613 202.85 90.496C202.658 90.7307 202.508 90.9973 202.402 91.296C202.295 91.5947 202.226 91.8933 202.194 92.192H206.754C206.743 91.8827 206.684 91.5787 206.578 91.28C206.482 90.9813 206.343 90.7147 206.162 90.48C205.98 90.2453 205.751 90.0587 205.474 89.92C205.196 89.7707 204.876 89.696 204.514 89.696ZM213.811 94.176C213.811 94.4533 213.741 94.7093 213.603 94.944C213.464 95.1787 213.272 95.3867 213.027 95.568C212.792 95.7387 212.515 95.8773 212.195 95.984C211.875 96.08 211.528 96.128 211.155 96.128C210.696 96.128 210.323 96.0693 210.035 95.952C209.747 95.824 209.501 95.696 209.299 95.568C209.16 95.4827 209.032 95.4133 208.915 95.36C208.797 95.296 208.669 95.264 208.531 95.264V94.048H208.691C208.723 94.1973 208.813 94.3627 208.963 94.544C209.123 94.7147 209.309 94.8747 209.523 95.024C209.747 95.1733 209.987 95.3013 210.243 95.408C210.509 95.504 210.776 95.552 211.043 95.552C211.235 95.552 211.432 95.5307 211.635 95.488C211.837 95.4453 212.019 95.376 212.179 95.28C212.349 95.184 212.488 95.0667 212.595 94.928C212.712 94.7787 212.771 94.6027 212.771 94.4C212.771 94.1973 212.712 94.0213 212.595 93.872C212.477 93.7227 212.328 93.5947 212.147 93.488C211.965 93.3707 211.757 93.2693 211.523 93.184C211.288 93.0987 211.053 93.0187 210.819 92.944C210.541 92.8587 210.259 92.7627 209.971 92.656C209.693 92.5493 209.443 92.4267 209.219 92.288C208.995 92.1387 208.813 91.9627 208.675 91.76C208.536 91.5467 208.467 91.296 208.467 91.008C208.467 90.7627 208.509 90.528 208.595 90.304C208.691 90.08 208.84 89.888 209.043 89.728C209.256 89.5573 209.528 89.424 209.859 89.328C210.189 89.2213 210.589 89.168 211.059 89.168C211.475 89.168 211.795 89.2053 212.019 89.28C212.253 89.344 212.445 89.4133 212.595 89.488C212.691 89.5413 212.787 89.584 212.883 89.616C212.979 89.6373 213.085 89.648 213.203 89.648V90.768H213.075C212.883 90.416 212.589 90.1493 212.195 89.968C211.8 89.7867 211.395 89.696 210.979 89.696C210.712 89.696 210.483 89.7333 210.291 89.808C210.099 89.872 209.939 89.9573 209.811 90.064C209.693 90.16 209.603 90.272 209.539 90.4C209.485 90.528 209.459 90.656 209.459 90.784C209.459 90.9653 209.507 91.12 209.603 91.248C209.709 91.376 209.848 91.488 210.019 91.584C210.2 91.68 210.397 91.7707 210.611 91.856C210.835 91.9413 211.069 92.0213 211.315 92.096C211.613 92.192 211.912 92.2987 212.211 92.416C212.509 92.5227 212.776 92.656 213.011 92.816C213.245 92.976 213.437 93.168 213.587 93.392C213.736 93.6053 213.811 93.8667 213.811 94.176ZM216.757 89.824V93.68C216.757 93.9573 216.762 94.208 216.773 94.432C216.783 94.656 216.81 94.8427 216.853 94.992C216.895 95.1413 216.959 95.2587 217.045 95.344C217.13 95.4187 217.247 95.456 217.397 95.456C217.621 95.456 217.829 95.3493 218.021 95.136C218.223 94.9227 218.351 94.6667 218.405 94.368H218.549V95.536C218.453 95.536 218.373 95.568 218.309 95.632C218.223 95.7067 218.101 95.7867 217.941 95.872C217.791 95.9573 217.562 96 217.253 96C216.869 96 216.57 95.9253 216.357 95.776C216.143 95.6267 215.989 95.4293 215.893 95.184C215.797 94.9387 215.738 94.6667 215.717 94.368C215.706 94.0693 215.701 93.7653 215.701 93.456V89.824H214.805V89.28H215.701V87.856C215.701 87.6747 215.674 87.5093 215.621 87.36C215.578 87.2 215.423 87.1147 215.157 87.104V86.944L216.757 86.432V89.28H218.549V89.824H216.757ZM219.863 95.312C219.863 95.0987 219.933 94.9173 220.071 94.768C220.221 94.6187 220.402 94.544 220.615 94.544C220.829 94.544 221.01 94.6187 221.159 94.768C221.309 94.9173 221.383 95.0987 221.383 95.312C221.383 95.5253 221.309 95.7067 221.159 95.856C221.01 95.9947 220.829 96.064 220.615 96.064C220.402 96.064 220.221 95.9947 220.071 95.856C219.933 95.7067 219.863 95.5253 219.863 95.312ZM227.11 85.44H229.382C230.566 85.44 231.462 85.6693 232.07 86.128C232.689 86.576 232.998 87.216 232.998 88.048C232.998 88.496 232.892 88.896 232.678 89.248C232.465 89.6 232.182 89.8987 231.83 90.144C231.489 90.3787 231.1 90.56 230.662 90.688C230.236 90.816 229.809 90.88 229.382 90.88H228.774V94.96C228.774 95.0453 228.785 95.1413 228.806 95.248C228.828 95.344 228.86 95.4347 228.902 95.52C228.956 95.6053 229.009 95.68 229.062 95.744C229.126 95.808 229.201 95.84 229.286 95.84H229.366V96H227.11V95.84H227.19C227.265 95.84 227.334 95.808 227.398 95.744C227.462 95.68 227.516 95.6053 227.558 95.52C227.601 95.4347 227.633 95.344 227.654 95.248C227.676 95.1413 227.686 95.0453 227.686 94.96V86.432C227.686 86.2827 227.644 86.112 227.558 85.92C227.473 85.728 227.35 85.6213 227.19 85.6H227.11V85.44ZM228.774 86V90.32H229.254C229.681 90.32 230.06 90.2613 230.39 90.144C230.732 90.0267 231.014 89.872 231.238 89.68C231.462 89.488 231.633 89.2693 231.75 89.024C231.868 88.7787 231.926 88.528 231.926 88.272C231.926 87.9627 231.873 87.6747 231.766 87.408C231.67 87.1307 231.505 86.8907 231.27 86.688C231.046 86.4747 230.748 86.3093 230.374 86.192C230.001 86.064 229.542 86 228.998 86H228.774ZM238.265 90.448C238.137 90.2347 238.003 90.1013 237.865 90.048C237.726 89.9947 237.566 89.968 237.385 89.968C237.267 89.968 237.139 89.9947 237.001 90.048C236.873 90.1013 236.745 90.1707 236.617 90.256C236.489 90.3413 236.361 90.4373 236.233 90.544C236.115 90.64 236.014 90.7307 235.929 90.816V94.976C235.929 95.0613 235.939 95.152 235.961 95.248C235.982 95.344 236.014 95.44 236.057 95.536C236.11 95.6213 236.163 95.696 236.217 95.76C236.281 95.8133 236.355 95.84 236.441 95.84V96H234.361V95.84C234.435 95.84 234.505 95.8133 234.569 95.76C234.633 95.696 234.686 95.6213 234.729 95.536C234.782 95.44 234.819 95.344 234.841 95.248C234.862 95.152 234.873 95.0613 234.873 94.976V90.512C234.873 90.3627 234.825 90.2133 234.729 90.064C234.633 89.9147 234.494 89.8187 234.313 89.776V89.648L235.929 89.168V90.128C236.025 90.0107 236.126 89.8987 236.233 89.792C236.339 89.6747 236.457 89.5733 236.585 89.488C236.723 89.392 236.873 89.3173 237.033 89.264C237.193 89.2 237.379 89.168 237.593 89.168C237.742 89.168 237.934 89.2 238.169 89.264C238.403 89.328 238.595 89.3973 238.745 89.472L238.265 90.448ZM243.111 96.112C242.578 96.112 242.098 96.0267 241.671 95.856C241.245 95.6747 240.877 95.4347 240.567 95.136C240.269 94.8267 240.034 94.464 239.863 94.048C239.703 93.632 239.623 93.1787 239.623 92.688C239.623 92.1653 239.714 91.6907 239.895 91.264C240.077 90.8267 240.327 90.4533 240.647 90.144C240.967 89.8347 241.346 89.5947 241.783 89.424C242.221 89.2533 242.695 89.168 243.207 89.168C243.719 89.168 244.189 89.2533 244.615 89.424C245.042 89.584 245.41 89.8133 245.719 90.112C246.029 90.4107 246.269 90.768 246.439 91.184C246.61 91.5893 246.695 92.0373 246.695 92.528C246.695 92.9867 246.615 93.4347 246.455 93.872C246.306 94.2987 246.077 94.6773 245.767 95.008C245.469 95.3387 245.095 95.6053 244.647 95.808C244.21 96.0107 243.698 96.112 243.111 96.112ZM243.015 89.696C242.631 89.7173 242.29 89.8133 241.991 89.984C241.703 90.144 241.458 90.3573 241.255 90.624C241.063 90.88 240.914 91.1733 240.807 91.504C240.711 91.8347 240.663 92.1707 240.663 92.512C240.663 92.9067 240.722 93.2907 240.839 93.664C240.967 94.0267 241.143 94.352 241.367 94.64C241.602 94.928 241.879 95.1573 242.199 95.328C242.519 95.4987 242.877 95.584 243.271 95.584C243.666 95.584 244.013 95.4987 244.311 95.328C244.621 95.1573 244.877 94.9387 245.079 94.672C245.282 94.3947 245.431 94.0853 245.527 93.744C245.634 93.4027 245.687 93.0613 245.687 92.72C245.687 92.368 245.634 92.016 245.527 91.664C245.421 91.3013 245.255 90.976 245.031 90.688C244.807 90.3893 244.525 90.1493 244.183 89.968C243.853 89.7867 243.463 89.696 243.015 89.696ZM249.694 89.824V93.68C249.694 93.9573 249.7 94.208 249.71 94.432C249.721 94.656 249.748 94.8427 249.79 94.992C249.833 95.1413 249.897 95.2587 249.982 95.344C250.068 95.4187 250.185 95.456 250.334 95.456C250.558 95.456 250.766 95.3493 250.958 95.136C251.161 94.9227 251.289 94.6667 251.342 94.368H251.486V95.536C251.39 95.536 251.31 95.568 251.246 95.632C251.161 95.7067 251.038 95.7867 250.878 95.872C250.729 95.9573 250.5 96 250.19 96C249.806 96 249.508 95.9253 249.294 95.776C249.081 95.6267 248.926 95.4293 248.83 95.184C248.734 94.9387 248.676 94.6667 248.654 94.368C248.644 94.0693 248.638 93.7653 248.638 93.456V89.824H247.742V89.28H248.638V87.856C248.638 87.6747 248.612 87.5093 248.558 87.36C248.516 87.2 248.361 87.1147 248.094 87.104V86.944L249.694 86.432V89.28H251.486V89.824H249.694ZM253.569 92.768C253.611 93.1413 253.702 93.4987 253.841 93.84C253.979 94.1707 254.161 94.464 254.385 94.72C254.619 94.976 254.902 95.184 255.233 95.344C255.563 95.4933 255.947 95.568 256.385 95.568C256.619 95.568 256.865 95.536 257.121 95.472C257.387 95.3973 257.633 95.296 257.857 95.168C258.081 95.04 258.278 94.8853 258.449 94.704C258.63 94.512 258.753 94.2987 258.817 94.064H258.961V95.264C258.897 95.264 258.822 95.2853 258.737 95.328C258.662 95.3707 258.571 95.424 258.465 95.488C258.251 95.616 257.963 95.7547 257.601 95.904C257.238 96.0427 256.758 96.112 256.161 96.112C255.681 96.112 255.222 96.0427 254.785 95.904C254.358 95.7653 253.979 95.552 253.649 95.264C253.318 94.976 253.051 94.608 252.849 94.16C252.657 93.712 252.561 93.1787 252.561 92.56C252.561 92.1653 252.625 91.7653 252.753 91.36C252.891 90.9547 253.094 90.592 253.361 90.272C253.638 89.9413 253.99 89.6747 254.417 89.472C254.843 89.2693 255.355 89.168 255.953 89.168C256.486 89.168 256.95 89.2587 257.345 89.44C257.75 89.6213 258.081 89.872 258.337 90.192C258.603 90.512 258.801 90.8907 258.929 91.328C259.057 91.7653 259.121 92.2453 259.121 92.768H253.569ZM255.889 89.696C255.515 89.696 255.19 89.7707 254.913 89.92C254.646 90.0693 254.417 90.2613 254.225 90.496C254.033 90.7307 253.883 90.9973 253.777 91.296C253.67 91.5947 253.601 91.8933 253.569 92.192H258.129C258.118 91.8827 258.059 91.5787 257.953 91.28C257.857 90.9813 257.718 90.7147 257.537 90.48C257.355 90.2453 257.126 90.0587 256.849 89.92C256.571 89.7707 256.251 89.696 255.889 89.696ZM266.358 95.424C266.273 95.424 266.193 95.4453 266.118 95.488C266.044 95.52 265.958 95.5627 265.862 95.616C265.681 95.7227 265.452 95.8347 265.174 95.952C264.897 96.0587 264.534 96.112 264.086 96.112C263.542 96.112 263.036 96.0267 262.566 95.856C262.108 95.6747 261.708 95.4293 261.366 95.12C261.036 94.8 260.774 94.432 260.582 94.016C260.401 93.5893 260.31 93.1307 260.31 92.64C260.31 92.1813 260.39 91.744 260.55 91.328C260.721 90.912 260.961 90.544 261.27 90.224C261.58 89.904 261.958 89.648 262.406 89.456C262.865 89.264 263.382 89.168 263.958 89.168C264.353 89.168 264.673 89.216 264.918 89.312C265.164 89.3973 265.372 89.4827 265.542 89.568C265.638 89.6213 265.729 89.664 265.814 89.696C265.91 89.728 266.006 89.744 266.102 89.744V90.96H265.942C265.889 90.7573 265.793 90.5813 265.654 90.432C265.516 90.272 265.356 90.1387 265.174 90.032C264.993 89.9253 264.796 89.8453 264.582 89.792C264.369 89.7387 264.161 89.712 263.958 89.712C263.521 89.712 263.137 89.792 262.806 89.952C262.476 90.1013 262.204 90.304 261.99 90.56C261.777 90.8053 261.617 91.088 261.51 91.408C261.404 91.728 261.35 92.0587 261.35 92.4C261.35 92.7947 261.414 93.184 261.542 93.568C261.67 93.9413 261.852 94.2773 262.086 94.576C262.332 94.8747 262.625 95.1147 262.966 95.296C263.308 95.4773 263.692 95.568 264.118 95.568C264.417 95.568 264.689 95.5253 264.934 95.44C265.19 95.3547 265.404 95.2427 265.574 95.104C265.756 94.9653 265.9 94.816 266.006 94.656C266.113 94.4853 266.177 94.3253 266.198 94.176H266.358V95.424ZM268.991 89.824V93.68C268.991 93.9573 268.996 94.208 269.007 94.432C269.018 94.656 269.044 94.8427 269.087 94.992C269.13 95.1413 269.194 95.2587 269.279 95.344C269.364 95.4187 269.482 95.456 269.631 95.456C269.855 95.456 270.063 95.3493 270.255 95.136C270.458 94.9227 270.586 94.6667 270.639 94.368H270.783V95.536C270.687 95.536 270.607 95.568 270.543 95.632C270.458 95.7067 270.335 95.7867 270.175 95.872C270.026 95.9573 269.796 96 269.487 96C269.103 96 268.804 95.9253 268.591 95.776C268.378 95.6267 268.223 95.4293 268.127 95.184C268.031 94.9387 267.972 94.6667 267.951 94.368C267.94 94.0693 267.935 93.7653 267.935 93.456V89.824H267.039V89.28H267.935V87.856C267.935 87.6747 267.908 87.5093 267.855 87.36C267.812 87.2 267.658 87.1147 267.391 87.104V86.944L268.991 86.432V89.28H270.783V89.824H268.991ZM272.306 95.14C272.306 94.8733 272.392 94.6467 272.566 94.46C272.752 94.2733 272.979 94.18 273.246 94.18C273.512 94.18 273.739 94.2733 273.926 94.46C274.112 94.6467 274.206 94.8733 274.206 95.14C274.206 95.4067 274.112 95.6333 273.926 95.82C273.739 95.9933 273.512 96.08 273.246 96.08C272.979 96.08 272.752 95.9933 272.566 95.82C272.392 95.6333 272.306 95.4067 272.306 95.14Z" fill="#EBCF65"/>
<path d="M155.08 65V64.12L156.66 63.9C156.913 63.86 157.087 63.7667 157.18 63.62C157.273 63.4733 157.32 63.2333 157.32 62.9V51.94H156.18C155.7 51.94 155.293 51.9867 154.96 52.08C154.627 52.16 154.333 52.32 154.08 52.56C153.84 52.7867 153.62 53.1133 153.42 53.54C153.233 53.9533 153.027 54.4933 152.8 55.16L151.8 54.92L152.56 50.94H164.06L164.78 54.92L163.76 55.16C163.547 54.4933 163.34 53.9533 163.14 53.54C162.953 53.1133 162.74 52.7867 162.5 52.56C162.273 52.32 161.987 52.16 161.64 52.08C161.307 51.9867 160.907 51.94 160.44 51.94H159.3V62.98C159.3 63.3 159.34 63.5267 159.42 63.66C159.513 63.78 159.7 63.86 159.98 63.9L161.52 64.12V65H155.08ZM166.162 65V64.12L167.122 63.94C167.335 63.9 167.475 63.82 167.542 63.7C167.609 63.5667 167.642 63.3267 167.642 62.98V57.2C167.642 56.7333 167.602 56.42 167.522 56.26C167.442 56.0867 167.255 55.9867 166.962 55.96L165.982 55.82L166.102 54.92L168.882 54.72L169.102 54.84L169.302 56.66H169.342C169.729 55.98 170.175 55.46 170.682 55.1C171.189 54.74 171.735 54.56 172.322 54.56C172.949 54.56 173.449 54.7333 173.822 55.08C174.195 55.4267 174.382 55.8867 174.382 56.46C174.382 56.7933 174.329 57.08 174.222 57.32C174.129 57.5467 173.982 57.72 173.782 57.84C173.582 57.96 173.335 58.02 173.042 58.02C172.669 58.02 172.375 57.94 172.162 57.78C171.962 57.62 171.862 57.4067 171.862 57.14C171.862 57.0333 171.875 56.9267 171.902 56.82C171.942 56.7 171.989 56.5733 172.042 56.44C172.109 56.2933 172.189 56.1267 172.282 55.94C171.975 55.8067 171.662 55.7933 171.342 55.9C171.022 55.9933 170.722 56.18 170.442 56.46C170.162 56.74 169.935 57.0867 169.762 57.5C169.589 57.9 169.502 58.3333 169.502 58.8V63.02C169.502 63.34 169.529 63.56 169.582 63.68C169.649 63.7867 169.789 63.8533 170.002 63.88L171.722 64.14V65H166.162ZM179.815 65.28C178.762 65.28 177.968 64.9933 177.435 64.42C176.902 63.8333 176.635 62.98 176.635 61.86V57.18C176.635 56.7 176.595 56.3867 176.515 56.24C176.435 56.0933 176.248 55.9933 175.955 55.94L175.075 55.8L175.235 54.94L178.255 54.72L178.495 54.84V61.36C178.495 61.9867 178.555 62.4867 178.675 62.86C178.795 63.2333 178.995 63.5067 179.275 63.68C179.555 63.84 179.928 63.92 180.395 63.92C180.955 63.92 181.435 63.8067 181.835 63.58C182.235 63.3533 182.542 63.0333 182.755 62.62C182.968 62.2067 183.075 61.72 183.075 61.16V57.18C183.075 56.7133 183.035 56.4067 182.955 56.26C182.888 56.1 182.702 55.9933 182.395 55.94L181.515 55.8L181.675 54.94L184.715 54.72L184.935 54.84V63.08C184.935 63.4 184.975 63.62 185.055 63.74C185.148 63.8467 185.322 63.9267 185.575 63.98L186.575 64.14V65L183.455 65.12L183.195 63.48H183.135C182.802 63.9067 182.462 64.2533 182.115 64.52C181.768 64.7733 181.408 64.96 181.035 65.08C180.662 65.2133 180.255 65.28 179.815 65.28ZM188.472 65.28L188.152 61.82L189.172 61.74C189.372 62.2867 189.605 62.74 189.872 63.1C190.139 63.46 190.452 63.7267 190.812 63.9C191.185 64.0733 191.592 64.16 192.032 64.16C192.632 64.16 193.099 64.0067 193.432 63.7C193.779 63.3933 193.952 62.9733 193.952 62.44C193.952 62.12 193.879 61.86 193.732 61.66C193.585 61.4467 193.339 61.26 192.992 61.1C192.645 60.94 192.172 60.78 191.572 60.62C191.025 60.46 190.545 60.2867 190.132 60.1C189.732 59.9133 189.399 59.7067 189.132 59.48C188.879 59.24 188.692 58.9667 188.572 58.66C188.452 58.3533 188.392 57.9867 188.392 57.56C188.392 56.96 188.525 56.44 188.792 56C189.072 55.5467 189.472 55.1933 189.992 54.94C190.512 54.6867 191.119 54.56 191.812 54.56C192.252 54.56 192.672 54.6267 193.072 54.76C193.472 54.8933 193.792 55.06 194.032 55.26L194.212 54.56H195.012L195.272 57.82L194.232 57.72C194.085 57.0667 193.799 56.5467 193.372 56.16C192.945 55.76 192.439 55.56 191.852 55.56C191.265 55.56 190.812 55.6933 190.492 55.96C190.172 56.2133 190.012 56.58 190.012 57.06C190.012 57.3667 190.085 57.6267 190.232 57.84C190.379 58.04 190.625 58.22 190.972 58.38C191.319 58.54 191.772 58.7067 192.332 58.88C192.919 59.04 193.412 59.2133 193.812 59.4C194.225 59.5867 194.559 59.8 194.812 60.04C195.079 60.28 195.272 60.56 195.392 60.88C195.512 61.1867 195.572 61.5467 195.572 61.96C195.572 62.6133 195.419 63.1933 195.112 63.7C194.805 64.1933 194.385 64.58 193.852 64.86C193.319 65.14 192.699 65.28 191.992 65.28C191.472 65.28 190.992 65.22 190.552 65.1C190.125 64.98 189.765 64.8067 189.472 64.58L189.232 65.28H188.472ZM200.94 65.28C200.353 65.28 199.866 65.1733 199.48 64.96C199.093 64.7467 198.8 64.42 198.6 63.98C198.413 63.54 198.32 62.98 198.32 62.3V56H196.76V55.06C197.226 55.02 197.613 54.88 197.92 54.64C198.226 54.4 198.466 54.0267 198.64 53.52C198.813 53.0133 198.926 52.3533 198.98 51.54L199.94 51.42L200.18 51.54V54.84H203.28V56H200.18V62.16C200.18 62.7333 200.293 63.16 200.52 63.44C200.746 63.72 201.1 63.86 201.58 63.86C201.926 63.86 202.253 63.8067 202.56 63.7C202.88 63.58 203.193 63.4067 203.5 63.18L203.94 63.84C203.513 64.3067 203.046 64.6667 202.54 64.92C202.033 65.16 201.5 65.28 200.94 65.28ZM206.189 69.6C205.575 69.6 205.082 69.4533 204.709 69.16C204.349 68.88 204.169 68.4933 204.169 68C204.169 67.6267 204.289 67.3133 204.529 67.06C204.769 66.8067 205.075 66.68 205.449 66.68C205.755 66.68 206.002 66.7467 206.189 66.88C206.375 67.0133 206.482 67.1933 206.509 67.42C206.522 67.5133 206.515 67.6533 206.489 67.84C206.475 68.0267 206.449 68.2733 206.409 68.58C206.689 68.5933 206.942 68.5333 207.169 68.4C207.395 68.28 207.622 68.0333 207.849 67.66C208.089 67.2867 208.362 66.7467 208.669 66.04L209.149 64.92L205.789 56.92C205.629 56.52 205.495 56.2667 205.389 56.16C205.295 56.04 205.135 55.9533 204.909 55.9L204.209 55.74L204.409 54.84H209.149V55.68L208.189 55.82C207.949 55.8467 207.789 55.9267 207.709 56.06C207.629 56.1933 207.662 56.4467 207.809 56.82L210.089 62.58H210.189L212.449 56.96C212.582 56.64 212.615 56.4 212.549 56.24C212.482 56.0667 212.295 55.9467 211.989 55.88L211.129 55.68L211.309 54.84H215.369V55.7L214.649 55.86C214.435 55.9133 214.269 56 214.149 56.12C214.042 56.24 213.895 56.5133 213.709 56.94L209.869 66.06C209.589 66.74 209.315 67.3067 209.049 67.76C208.782 68.2133 208.502 68.5733 208.209 68.84C207.929 69.1067 207.622 69.3 207.289 69.42C206.969 69.54 206.602 69.6 206.189 69.6ZM227.138 65.28C225.778 65.28 224.591 64.98 223.578 64.38C222.578 63.7667 221.798 62.9133 221.238 61.82C220.691 60.7133 220.418 59.42 220.418 57.94C220.418 56.86 220.571 55.8733 220.878 54.98C221.185 54.0867 221.618 53.32 222.178 52.68C222.738 52.0267 223.405 51.5267 224.178 51.18C224.965 50.8333 225.831 50.66 226.778 50.66C227.498 50.66 228.145 50.7733 228.718 51C229.291 51.2133 229.778 51.52 230.178 51.92L230.378 50.62H231.278L232.058 55.28L231.058 55.5C230.791 54.6467 230.458 53.9533 230.058 53.42C229.671 52.8733 229.211 52.4667 228.678 52.2C228.158 51.9333 227.538 51.8 226.818 51.8C225.885 51.8 225.105 52.0333 224.478 52.5C223.851 52.9667 223.371 53.6533 223.038 54.56C222.718 55.4667 222.558 56.5867 222.558 57.92C222.558 58.8133 222.671 59.6333 222.898 60.38C223.125 61.1133 223.445 61.7533 223.858 62.3C224.285 62.8333 224.791 63.2533 225.378 63.56C225.978 63.8533 226.638 64 227.358 64C227.945 64 228.478 63.92 228.958 63.76C229.438 63.6 229.885 63.3533 230.298 63.02C230.725 62.6733 231.111 62.24 231.458 61.72L232.318 62.34C232.051 62.7933 231.731 63.2 231.358 63.56C230.998 63.92 230.591 64.2333 230.138 64.5C229.685 64.7533 229.205 64.9467 228.698 65.08C228.191 65.2133 227.671 65.28 227.138 65.28ZM239.163 65.28C238.176 65.28 237.316 65.0733 236.583 64.66C235.849 64.2333 235.283 63.64 234.883 62.88C234.496 62.1067 234.303 61.2 234.303 60.16C234.303 59 234.509 58.0067 234.923 57.18C235.336 56.34 235.929 55.6933 236.703 55.24C237.476 54.7867 238.389 54.56 239.443 54.56C240.403 54.56 241.236 54.7667 241.943 55.18C242.649 55.5933 243.196 56.1867 243.583 56.96C243.969 57.72 244.163 58.62 244.163 59.66C244.163 60.7933 243.956 61.7867 243.543 62.64C243.129 63.48 242.549 64.1333 241.803 64.6C241.056 65.0533 240.176 65.28 239.163 65.28ZM239.443 64.14C240.029 64.14 240.516 63.9933 240.903 63.7C241.303 63.3933 241.603 62.94 241.803 62.34C242.016 61.74 242.123 61.0067 242.123 60.14C242.123 59.4333 242.049 58.8067 241.903 58.26C241.769 57.7 241.569 57.2267 241.303 56.84C241.049 56.4533 240.736 56.16 240.363 55.96C239.989 55.76 239.569 55.66 239.103 55.66C238.516 55.66 238.016 55.8067 237.603 56.1C237.189 56.3933 236.869 56.8267 236.643 57.4C236.429 57.9733 236.323 58.6933 236.323 59.56C236.323 60.52 236.449 61.3467 236.703 62.04C236.956 62.72 237.316 63.24 237.783 63.6C238.249 63.96 238.803 64.14 239.443 64.14ZM245.882 65V64.1L247.022 63.92C247.275 63.8933 247.435 63.8133 247.502 63.68C247.582 63.5333 247.622 63.28 247.622 62.92V57.24C247.622 56.76 247.575 56.44 247.482 56.28C247.402 56.12 247.209 56.02 246.902 55.98L245.942 55.86L246.062 54.94L249.262 54.78L249.482 54.88V63C249.482 63.2533 249.515 63.46 249.582 63.62C249.649 63.78 249.822 63.88 250.102 63.92L251.222 64.12V65H245.882ZM248.262 52.6C247.875 52.6 247.555 52.48 247.302 52.24C247.049 51.9867 246.922 51.6667 246.922 51.28C246.922 50.8933 247.049 50.5733 247.302 50.32C247.555 50.0667 247.875 49.94 248.262 49.94C248.662 49.94 248.989 50.0667 249.242 50.32C249.495 50.56 249.622 50.8733 249.622 51.26C249.622 51.6467 249.495 51.9667 249.242 52.22C248.989 52.4733 248.662 52.6 248.262 52.6ZM252.803 65V64.14L253.763 63.96C253.976 63.92 254.116 63.84 254.183 63.72C254.249 63.5867 254.283 63.3467 254.283 63V57.18C254.283 56.7 254.243 56.3867 254.163 56.24C254.083 56.08 253.896 55.98 253.603 55.94L252.623 55.8L252.743 54.92L255.583 54.72L255.803 54.84L255.943 56.64H255.983C256.343 56 256.836 55.4933 257.463 55.12C258.103 54.7467 258.776 54.56 259.483 54.56C260.176 54.56 260.763 54.6933 261.243 54.96C261.736 55.2133 262.109 55.5933 262.363 56.1C262.616 56.6067 262.743 57.2333 262.743 57.98V63.16C262.743 63.4533 262.783 63.6533 262.863 63.76C262.943 63.8667 263.109 63.94 263.363 63.98L264.303 64.14V65H259.403V64.16L260.283 64C260.536 63.9467 260.696 63.8667 260.763 63.76C260.843 63.6533 260.883 63.4533 260.883 63.16V58.5C260.883 57.8733 260.816 57.3733 260.683 57C260.563 56.6267 260.356 56.36 260.063 56.2C259.769 56.0267 259.376 55.94 258.883 55.94C258.323 55.94 257.836 56.0533 257.423 56.28C257.023 56.5067 256.709 56.8267 256.483 57.24C256.256 57.6533 256.143 58.14 256.143 58.7V63.08C256.143 63.3733 256.176 63.58 256.243 63.7C256.309 63.82 256.443 63.9 256.643 63.94L257.703 64.16V65H252.803Z" fill="#EB8700"/>
<g clip-path="url(#clip1_20_1645)">
<mask id="mask0_20_1645" style="mask-type:luminance" maskUnits="userSpaceOnUse" x="14" y="0" width="129" height="152">
<path d="M143 0H14V152H143V0Z" fill="white"/>
</mask>
<g mask="url(#mask0_20_1645)">
<path d="M79.8071 50.3818V58.9212" stroke="#EBCF65" stroke-width="5"/>
<path d="M79.8071 104.18V112.719" stroke="#EBCF65" stroke-width="5"/>
<path d="M81.624 105.04C77.0218 105.04 73.11 104.097 69.8885 102.212C66.6669 100.285 64.2194 97.5597 62.5459 94.0347C60.8724 90.5097 60.0356 86.2878 60.0356 81.3692C60.0356 78.172 60.5168 75.2004 61.479 72.4541C62.4413 69.6669 63.801 67.228 65.5582 65.1376C67.3154 63.0472 69.4073 61.4076 71.8339 60.219C74.3023 59.0303 77.0218 58.436 79.9923 58.436C82.7954 58.436 85.222 58.9893 87.2721 60.096C89.3221 61.1617 90.9956 62.3504 92.2926 63.662L92.9202 58.313H93.7988L96.2463 72.6386L95.3049 72.823C94.259 70.2407 93.0248 67.9453 91.6023 65.9369C90.1798 63.8875 88.5063 62.2684 86.5818 61.0797C84.6991 59.8911 82.5026 59.2967 79.9923 59.2967C76.8545 59.2967 74.3023 60.178 72.336 61.9405C70.4114 63.662 68.9889 66.1623 68.0685 69.4414C67.1899 72.7205 66.7506 76.676 66.7506 81.3077C66.7506 84.3409 67.0853 87.2101 67.7547 89.9153C68.4241 92.5796 69.4073 94.9364 70.7043 96.9859C72.0431 99.0353 73.6748 100.654 75.5993 101.843C77.5657 102.991 79.8249 103.565 82.377 103.565C84.3434 103.565 86.2052 103.257 87.9624 102.642C89.7614 102.028 91.3931 101.126 92.8574 99.9371C94.3636 98.7484 95.6606 97.2933 96.7483 95.5718L97.3759 96.0022C96.5392 97.3958 95.556 98.6459 94.4263 99.7526C93.2967 100.859 92.0416 101.823 90.6609 102.642C89.3221 103.421 87.8787 104.015 86.3307 104.425C84.8246 104.835 83.2556 105.04 81.624 105.04Z" fill="#EBCF65"/>
<path d="M78.9357 138.835C78.9357 138.835 126.294 114.213 126.294 77.2808V34.1929L78.9357 15.7266L31.5776 34.1929V77.2808C31.5776 114.213 78.9357 138.835 78.9357 138.835Z" stroke="#1E1E1E" stroke-width="4" stroke-linecap="round" stroke-linejoin="round"/>
</g>
</g>
</g>
<defs>
<clipPath id="clip0_20_1645">
<rect width="294" height="158" fill="white"/>
</clipPath>
<clipPath id="clip1_20_1645">
<rect width="129" height="152" fill="white" transform="translate(14)"/>
</clipPath>
</defs>
</svg>
